<svg xmlns="http://www.w3.org/2000/svg" viewBox="0 0 365.28524 316.76242"><defs><style>.a,.e,.f,.g{fill:#fff;}.b,.c,.d,.h,.i{fill:none;}.b,.c,.d,.e,.f,.g,.h,.i{stroke:#fff;stroke-miterlimit:10;}.b{stroke-width:2.46652px;}.c{stroke-width:2.069px;}.d{stroke-width:1.81009px;}.e{stroke-width:2.34968px;}.f{stroke-width:3.78275px;}.g{stroke-width:3.11514px;}.h{stroke-width:3px;}.i{stroke-width:0.85978px;}</style></defs><path class="a" d="M133.68077,65.60753c10.77884,1.36629,21.75622-.29234,32.265-2.721,10.29312-2.37885,20.33478-5.67536,30.52816-8.42547a115.05479,115.05479,0,0,1,13.61175-2.98473c.04666-.00668.53373-.072.14928-.02173q.43061-.05633.86225-.10466.70482-.08,1.41161-.14114c.99407-.08518,1.991-.1401,2.98874-.15363.857-.01162,1.71479.00641,2.57.06446.411.0279.82008.06819,1.22972.11118.77733.08158-.35423-.05972.11375.01383.27368.043.547.08694.81919.13867a35.15272,35.15272,0,0,1,10.11964,3.83707,33.51149,33.51149,0,0,1,12.04183,10.62486c5.39521,7.99866,6.89909,17.65737,6.661,27.10632a107.6837,107.6837,0,0,1-3.71035,24.03856c-2.01232,7.95449-4.10912,15.45709-8.5562,22.24345-.79346,1.21084-1.64572,2.3814-2.52118,3.534q-.30533.402-.61382.8015c-.4216.54843.35526-.45872-.06942.08966l-.24917.32173c-.56441.72913-1.13,1.45741-1.68776,2.19168a68.20942,68.20942,0,0,0-5.79166,8.91226,106.60354,106.60354,0,0,0-6.51253,15.20215,76.15455,76.15455,0,0,0-3.7382,14.412c-1.11791,7.78392-.44852,15.35061.82557,23.06812,1.31721,7.97867,2.4596,15.07215,2.26789,23.37934a98.28943,98.28943,0,0,1-2.93633,21.67284c-3.26118,12.93614-8.04564,25.06708-15.751,36.03327a54.615,54.615,0,0,1-7.911,9.05152,32.85176,32.85176,0,0,1-4.47343,3.49321q-1.20012.79052-2.46036,1.48443-.629.34536-1.27226.664a11.211,11.211,0,0,1-1.03114.48049,6.08746,6.08746,0,0,1-3.22219.54039,2.90874,2.90874,0,0,1-1.93645-1.4571,12.96121,12.96121,0,0,1-1.54242-4.75827c-.0793-.49158.06465.66015-.02357-.18664-.02826-.27126-.05456-.54248-.07516-.81445-.03583-.47305-.05813-.9471-.07037-1.42133-.029-1.12521.00072-2.25166.06639-3.37512a65.36233,65.36233,0,0,1,.78053-6.77719c.82846-5.08345,1.993-10.107,3.21037-15.10919.55444-2.27824,1.12468-4.5526,1.67771-6.83118a30.06994,30.06994,0,0,0,1.24451-6.50282c.13613-9.75541-1.04915-19.94953-5.62476-28.70918a31.98343,31.98343,0,0,0-14.34408-14.08592,42.721,42.721,0,0,0-18.42787-3.8796,62.09068,62.09068,0,0,0-8.26579.56333,2.81417,2.81417,0,0,0-2.724,2.724c0,1.32206,1.25509,2.91816,2.724,2.724a61.58978,61.58978,0,0,1,8.68142-.5608c1.53616.01537,3.07206.09669,4.60018.25558.34959.03635.69829.07932,1.04723.12128-.74254-.08929.35238.05372.53033.08189q1.14975.182,2.2879.42909a35.688,35.688,0,0,1,4.38931,1.24873c.3684.13143.73246.27315,1.09748.4135.13278.05106.26439.10646.3959.1605-.63539-.26111.03331.016.1356.06286.71708.32878,1.42729.66829,2.12084,1.04478q.95389.51782,1.86784,1.10506.46065.29646.90969.61046c.165.1154,1.17053.87094.69254.49591a28.25427,28.25427,0,0,1,3.65312,3.43527q.394.44225.76964.9004.19018.23193.3755.46776c.28966.36835-.36885-.509.08944.12268.53736.74069,1.05567,1.492,1.53492,2.272q.71777,1.16816,1.33757,2.39268c.47539.93581.89318,1.86811,1.1421,2.49444A49.90952,49.90952,0,0,1,177.08007,247.17a81.01058,81.01058,0,0,1,.45061,8.45643,13.03641,13.03641,0,0,1-.20007,3.10575c-.22832,1.022-.46945,2.04117-.71472,3.05924-1.16883,4.85165-2.41571,9.68421-3.48425,14.55962a108.9661,108.9661,0,0,0-2.4812,15.55644c-.28256,3.98577-.16742,8.19638,1.36861,11.94244a9.57022,9.57022,0,0,0,5.56795,5.79695c2.90291.99861,5.96712.07328,8.61935-1.18576a40.99076,40.99076,0,0,0,10.28122-7.201c6.24852-5.84837,11.02426-13.23449,14.8358-20.84823a131.2716,131.2716,0,0,0,8.053-20.312,102.32322,102.32322,0,0,0,4.08742-42.17046c-.47451-3.88934-1.14433-7.74649-1.78234-11.61107q-.21362-1.294-.41358-2.59014c-.06869-.45078-.134-.902-.19948-1.35327-.02378-.164-.04625-.32825-.06873-.49242.08564.62551-.05108-.40266-.06433-.50919-.21759-1.74995-.38367-3.50658-.47163-5.268-.47286-9.46857,1.73278-18.03208,5.09512-27.03324a84.699,84.699,0,0,1,6.26668-13.4878q1.32672-2.24706,2.83971-4.376.63683-.89856,1.29983-1.77814.34856-.46437.702-.925.15783-.20616.31632-.41181c.33733-.43891-.29441.3793.13907-.17983a75.734,75.734,0,0,0,5.42508-7.62233,59.98621,59.98621,0,0,0,5.09989-11.50253,140.01335,140.01335,0,0,0,5.76634-24.07152c1.43329-9.692,1.77059-19.75256-.80848-29.2925A39.72849,39.72849,0,0,0,232.78532,50.349a41.096,41.096,0,0,0-11.1068-4.2191,36.9186,36.9186,0,0,0-11.73345-.08522c-9.89164,1.29879-19.46244,4.43076-29.01286,7.2-10.36427,3.00524-20.89181,5.97144-31.66765,7.01747a70.07537,70.07537,0,0,1-15.58379-.10264c-1.462-.18532-2.724,1.38464-2.724,2.724a2.79233,2.79233,0,0,0,2.724,2.724Z"/><path class="a" d="M155.049,59.866c-21.12936,2.69142-42.06617-3.11912-62.79075-6.32509-8.24355-1.27522-16.996-2.52754-25.26032-.72014a44.87142,44.87142,0,0,0-10.12387,3.76748A39.1918,39.1918,0,0,0,44.09218,66.5404C32.18007,80.94093,32.76379,101.146,36.45525,118.45068a99.42406,99.42406,0,0,0,7.92082,23.86611c3.75379,7.49425,9.096,13.98382,13.27252,21.22272a79.30624,79.30624,0,0,1,9.68576,28.04031c.19639,1.35791.40043,3.57647.47877,5.31093q.11907,2.636.00759,5.27525c-.07016,1.70752-.20878,3.41164-.39547,5.11022q-.06876.62556-.14568,1.2502c-.0222.181-.17194,1.33418-.096.769-.11141.829-.23259,1.65661-.35668,2.48375-1.108,7.38508-2.32451,14.73342-2.3929,22.22226a110.3412,110.3412,0,0,0,2.9466,25.59641,121.60174,121.60174,0,0,0,11.71433,30.75634c3.80492,6.96005,8.51721,13.68557,14.5594,18.88915a38.69619,38.69619,0,0,0,9.55135,6.24469c2.62651,1.15264,5.56684,1.811,8.3338.71111a9.60981,9.60981,0,0,0,5.17125-5.635c1.68549-4.1109,1.69494-8.70346,1.113-13.04118a97.8016,97.8016,0,0,0-3.90347-15.73141,90.78193,90.78193,0,0,1-3.5744-14.19152,64.213,64.213,0,0,1-.40913-13.45885,47.596,47.596,0,0,1,7.52874-22.93465,34.1937,34.1937,0,0,1,18.15255-13.60147,41.07645,41.07645,0,0,1,12.79079-1.7491c3.50669.03333,3.50962-5.4147,0-5.44806-8.8298-.08393-17.77241,2.06529-25.0697,7.18023A43.18388,43.18388,0,0,0,108.321,237.00027a59.38381,59.38381,0,0,0-3.8904,25.70845,67.20734,67.20734,0,0,0,2.30536,14.08474c1.413,5.07422,3.15974,10.05094,4.45259,15.15953,1.12125,4.43051,2.15212,9.43595,1.24476,13.88552a19.77969,19.77969,0,0,1-.53537,2.08812,7.1076,7.1076,0,0,1-.99274,2.1162c-1.23455,1.65144-3.16178,1.41371-5.03574.69715-.95306-.36442.17712.08977-.279-.11982-.16572-.07615-.33016-.15494-.4943-.23443q-.5813-.28154-1.15125-.58562-1.33141-.70926-2.5982-1.53158a31.32639,31.32639,0,0,1-4.06023-3.06845,54.53335,54.53335,0,0,1-7.51628-8.1802,81.544,81.544,0,0,1-6.18154-9.80238q-1.37421-2.54125-2.60323-5.15751-.53807-1.14146-1.05086-2.29461-.27968-.62857-.55212-1.26034-.10783-.25-.21456-.50056c-.244-.57263.07237.17782-.14384-.34342a134.78167,134.78167,0,0,1-5.45445-15.85943,101.38292,101.38292,0,0,1-2.80588-39.82811c.11059-.85892-.04213.30026.02728-.20892q.045-.33021.09152-.6602.08273-.58813.16927-1.17572.1978-1.34685.40869-2.69173c.24591-1.58459.49805-3.16826.73059-4.7549a99.33762,99.33762,0,0,0,1.07772-10.316,72.62863,72.62863,0,0,0-3.79616-25.1069A84.52507,84.52507,0,0,0,63.26768,162.419c-1.982-3.63405-4.28705-7.06785-6.6177-10.48394a119.33812,119.33812,0,0,1-6.53319-10.37787,73.17056,73.17056,0,0,1-5.68031-13.91746q-1.3388-4.47682-2.37593-9.03994a106.66588,106.66588,0,0,1-1.935-10.99716c-1.00078-8.675-.90624-17.51388,1.752-25.82567A34.42829,34.42829,0,0,1,59.92882,61.1428a37.68932,37.68932,0,0,1,9.27157-3.22222q.64395-.1221,1.293-.21526a6.99843,6.99843,0,0,0,.74919-.08254c.93391-.09444,1.87111-.153,2.80918-.18458,1.976-.0666,3.95486-.01281,5.92756.11081,9.3621.58665,18.61325,2.56136,27.89,4.23767,10.5779,1.91142,21.24313,3.70381,32.00278,4.11522a92.20383,92.20383,0,0,0,15.17687-.5878,2.81213,2.81213,0,0,0,2.724-2.724c0-1.3276-1.25444-2.91122-2.724-2.724Z"/><path class="b" d="M119.35054,146.43616c-.2158-1.872,22.441,15.31915,36.86653,9.25532,6.85332-2.88082,16.33825-11.04744,17.05851-10.80319.31409.10651.12372.61964-.31915,4.78724-1.02975,9.69046-2.89693,15.49022-7.6117,20.6968-6.99149,7.72091-14.53806,7.37144-18.50788,7.41528-3.52243.03892-7.67835-.55255-13.15608-3.93655C122.075,166.68133,119.80866,150.41007,119.35054,146.43616Z"/><path class="c" d="M222.65374,24.281c1.18052,7.31952,11.66954,13.9964,19.59885,12.42854,7.77177-1.53674,12.7869-14.05594,20.25624-11.05421,17.04924,6.85162,76.93792,42.06325,84.5435,47.573,4.68285,3.39242,12.26521,7.9521,13.6425,5.40971,2.066-3.81382,3.65393-5.42554,3.55119-7.94434-.388-9.51212-92.65495-50.35636-97.435-56.98888-.39482-.54782-1.224-5.26634-5.41767-8.04668-2.17118-1.43941-10.52487-7.04684-21.5109-3.42581C236.63981,3.30116,221.62529,17.90492,222.65374,24.281Z"/><path class="c" d="M232.31382,25.6553a4.32274,4.32274,0,0,1,2.68892.83655,4.22584,4.22584,0,0,1,1.19483,2.33037c.73988,4.06232-18.90412,19.24663-19.4593,18.18466C216.28013,46.13053,228.0641,25.66345,232.31382,25.6553Z"/><path class="a" d="M230.30182,23.18716a9.27689,9.27689,0,0,1,1.50065-.25532,6.26693,6.26693,0,0,1,2.07643.15279,8.5261,8.5261,0,0,1,2.648,1.32277,6.71729,6.71729,0,0,1,2.17135,2.20509,2.95119,2.95119,0,0,1-.46585,3.4335c-.31148.374.26482.60314.54892.61468a1.64836,1.64836,0,0,0,1.31723-.55269c3.25833-3.91213-2.50463-7.91458-6.04229-8.31338a11.75,11.75,0,0,0-4.03284.35362c-.31276.0743-.96039.3668-.86006.78722.10231.42873.86139.31754,1.13844.25172Z"/><path class="a" d="M217.98607,36.51581c-.00372-.07484-.00394-.14982-.00182-.22472.00179-.06375.00543-.12743.01054-.191.00276-.0343.00659-.06849.00968-.10276.01268-.14039-.01939.10615-.00049-.00309a4.612,4.612,0,0,1,.12939-.57q.02223-.07245.04729-.144c.00718-.02048.06817-.18144.04416-.12216-.02367.05845.03543-.07768.0463-.10045q.0428-.08964.0905-.17684a3.50169,3.50169,0,0,1,.20465-.32873c.01777-.02531.03566-.05056.05421-.0753-.00851.01135-.04619.05758-.00062.002q.07218-.088.14944-.17154a2.63074,2.63074,0,0,1,.62417-.51339,3.60877,3.60877,0,0,1,.37106-.19507c.06639-.03034.005-.0025-.00754.00252.028-.01123.05618-.02193.08444-.03242q.10992-.0408.22227-.07438.159-.0476.32178-.08087c.05114-.01048.10249-.01936.15391-.0283.0249-.00433.04995-.00784.075-.01155-.07931.01176-.07389.00851.00228.002a4.32068,4.32068,0,0,1,.5811-.01507c.06488.00317.12937.00919.19406.01482.17279.015-.16341-.02589-.02135-.00329a.64112.64112,0,0,0,.76883-.43652.6323.6323,0,0,0-.43653-.76882,4.45943,4.45943,0,0,0-2.68309.40653,4.18268,4.18268,0,0,0-2.18422,2.88171,4.279,4.279,0,0,0-.09935,1.06066.625.625,0,1,0,1.25,0Z"/><path class="a" d="M234.95469,39.39562a5.918,5.918,0,0,1-.73608,3.16079,5.73928,5.73928,0,0,1-4.44116,2.92447,6.95328,6.95328,0,0,1-1.03568.02686c-.1156-.00565-.23066-.01567-.34587-.02641-.22717-.02118.09318.01784-.09192-.01162a.64448.64448,0,0,0-.76883.43653.62987.62987,0,0,0,.43653.76882,7.37774,7.37774,0,0,0,4.40523-.67527,6.99108,6.99108,0,0,0,3.66817-4.84377,7.08738,7.08738,0,0,0,.15961-1.7604c-.03975-.80062-1.29-.80539-1.25,0Z"/><path class="a" d="M244.06461,50.86464c2.28824-1.56679,5.57154-2.23035,7.736-.065a4.6614,4.6614,0,0,1,1.50516,3.40521c-.1076,1.02834-.87647,1.06743-1.727.98669a15.06305,15.06305,0,0,1-5.03707-1.65061,1.05958,1.05958,0,0,0-.76386.06228c-.05084.01893-.54112.252-.35079.3448a15.94772,15.94772,0,0,0,5.38656,1.7369c1.07415.10123,2.63222.00723,3.35884-.92607.88789-1.14046-.09024-2.94777-.83425-3.8872a5.39431,5.39431,0,0,0-4.16512-1.96218A10.28206,10.28206,0,0,0,243.15528,50.82c-.19987.13686-.13563.23245.07208.269a1.3636,1.3636,0,0,0,.83725-.22434Z"/><path class="a" d="M272.50233,49.77762c5.21048.131,11.59809,2.51172,13.1222,8.06965.63527,2.31665.51352,5.79477-1.25173,7.63695-1.42565,1.48777-3.45676.1269-4.68448-.93238a29.0038,29.0038,0,0,1-6.22208-8.49859c-.37838-.71024-1.4578-.07949-1.07934.6309a29.92706,29.92706,0,0,0,6.41753,8.75158c1.47449,1.2706,3.69032,2.68251,5.64445,1.57163,2.44671-1.39092,2.92776-5.20988,2.69253-7.71413a10.51615,10.51615,0,0,0-3.99868-7.1954,17.53412,17.53412,0,0,0-10.6404-3.57021.62538.62538,0,0,0,0,1.25Z"/><path class="a" d="M209.65367,42.419c-2.60572.79789-6.03874.54752-7.61-2.0046a4.65386,4.65386,0,0,1-.57972-3.86638,1.36813,1.36813,0,0,1,.31543-.44911c.0469-.04691.04909-.03379.06513-.03888a.37.37,0,0,1,.18442-.03156,3.54235,3.54235,0,0,1,1.3317.31215,15.02227,15.02227,0,0,1,4.43324,3.14251c.311.29516,1.42913-.156,1.09762-.47064a15.627,15.627,0,0,0-4.59227-3.25854c-1.07677-.44449-2.51323-.71453-3.479.13395-1.11579.98029-.8,2.92594-.31083,4.13644a5.39793,5.39793,0,0,0,3.24645,3.02929,9.61705,9.61705,0,0,0,6.06384-.015c.17844-.05464.57747-.21295.509-.46843-.06591-.246-.50656-.20275-.675-.15116Z"/><path class="a" d="M195.62862,24.75615c-1.66554-2.347-4.69909-4.326-7.65439-3.23432-1.25654.46419-2.863,1.64877-3.05109,3.08792-.1371,1.04914.84293,1.62444,1.702,1.9155a13.686,13.686,0,0,0,5.67279.32887c.3064-.03093.45817-.4214.06212-.38143a15.31312,15.31312,0,0,1-4.5921-.09309c-.77014-.15827-1.94394-.459-2.22365-1.31585-.41843-1.28177,1.29386-2.608,2.26294-3.0698a4.55813,4.55813,0,0,1,3.56419-.03571,8.20153,8.20153,0,0,1,3.72629,3.04075c.13536.19075.68981-.019.531-.24284Z"/><path class="a" d="M28.61321,58.431c-1.74862-2.4641-4.98584-4.66721-8.11016-3.44085-1.40237.55047-3.04043,1.8494-3.20389,3.46088-.12417,1.22423.91334,1.95932,1.938,2.33049a13.42562,13.42562,0,0,0,5.80223.37576c.79274-.08.801-1.33084,0-1.25A15.54285,15.54285,0,0,1,20.6,59.85014a4.92763,4.92763,0,0,1-1.43135-.45351,1.29908,1.29908,0,0,1-.59967-.55291,1.577,1.577,0,0,1,.47917-1.3066,4.74441,4.74441,0,0,1,1.66264-1.28428,4.31844,4.31844,0,0,1,3.25059-.0473,7.59676,7.59676,0,0,1,3.5725,2.85634c.46177.65071,1.54624.027,1.07934-.6309Z"/><path class="a" d="M15.15441,84.26665C11.14,81.87045,5.0729,80.996,1.81857,85.12687.65977,86.59779-.46364,88.92127.19588,90.83c.54713,1.58348,2.27487,1.9168,3.76119,1.79165a20.5541,20.5541,0,0,0,8.11963-2.99613.62547.62547,0,0,0-.6309-1.07934,23.16167,23.16167,0,0,1-6.31529,2.635c-.97906.21723-2.7995.57989-3.55148-.36362-.97641-1.22508.219-3.50269.93843-4.54767a6.56569,6.56569,0,0,1,4.69189-2.72846A11.66673,11.66673,0,0,1,14.52351,85.346a.62547.62547,0,0,0,.6309-1.07934Z"/><ellipse class="d" cx="102.75934" cy="117.68384" rx="15.36722" ry="17.53972"/><ellipse class="e" cx="97.58025" cy="111.77257" rx="8.37939" ry="5.06204" transform="translate(-50.37112 122.97094) rotate(-53.20666)"/><ellipse class="f" cx="101.25286" cy="126.14745" rx="4.05648" ry="4.40143"/><ellipse class="g" cx="111.08032" cy="115.8263" rx="2.98694" ry="4.05373"/><path class="a" d="M91.10923,102.9779a22.38109,22.38109,0,0,1-2.78181-.68929c-.16586-.05891-.32947-.12307-.49336-.18714-.29618-.11577.4291.19484.07065.029-.09106-.04213-.18283-.08256-.27339-.12581a9.73356,9.73356,0,0,1-1.05321-.58317c-.16875-.108-.33123-.22392-.494-.34059-.24522-.17581.34712.28592-.01306-.01643q-.109-.09154-.21466-.18708c-.16655-.15079-.32654-.309-.47822-.4748q-.09906-.10825-.19367-.2205c-.308-.36564.15207.21323-.03084-.03595a1.9075,1.9075,0,0,0-1.04887-.80655,1.79365,1.79365,0,0,0-1.35236.17692,1.77444,1.77444,0,0,0-.62963,2.40123,10.73742,10.73742,0,0,0,5.04556,3.67289,21.00279,21.00279,0,0,0,3.00771.772,1.75548,1.75548,0,1,0,.93312-3.3847Z"/><path class="a" d="M88.36511,108.80106c-.6128-.14247-1.19739-.37092-1.80351-.52661-.23915-.06143-.07433.08583.15719.07159-.07736.00476-.238-.10882-.30756-.14262-.47363-.23-.93073-.49449-1.38111-.7667-.63549-.38409-1.25629-.79266-1.86646-1.21567q-.48166-.33392-.95417-.68076-.20984-.15395-.41786-.31033-.14061-.10569-.28039-.2125.18128.14147-.06693-.05221a33.25408,33.25408,0,0,1-3.871-3.49583c-.26892-.28912-.53072-.585-.78219-.88943q-.10422-.12609-.206-.25416.13934.18389.02943.0381-.16388-.218-.3193-.44209a10.17191,10.17191,0,0,1-.5434-.873c-.08821-.16055-.163-.32714-.24768-.48924-.14316-.27405.09969.28565-.06144-.179a1.798,1.798,0,0,0-2.15891-1.22579A1.7714,1.7714,0,0,0,72.058,99.31364c1.16836,3.36943,4.17617,5.996,6.90428,8.13361,2.56134,2.007,5.25006,3.99,8.46969,4.73851a1.75548,1.75548,0,1,0,.93312-3.3847Z"/><polyline class="h" points="195.363 104.67 177.792 117.684 195.363 126.147"/><path class="i" d="M128.21433,157.47325c1.246,2.59584,9.47387,13.31436,19.86153,12.96422,9.24112-.3115,16.628-9.30039,18.27451-12.68235"/></svg>