<svg xmlns="http://www.w3.org/2000/svg" viewBox="0 0 841 595"><defs><style>.a{fill:#cd7c95;}.a,.c,.d,.e,.f,.g,.h,.i,.j{stroke:#fff;stroke-miterlimit:10;}.b,.f,.g,.h{fill:#fff;}.c,.d,.e,.i,.j{fill:none;}.c{stroke-width:2.46652px;}.d{stroke-width:2.069px;}.e{stroke-width:1.81009px;}.f{stroke-width:2.34968px;}.g{stroke-width:3.78275px;}.h{stroke-width:3.11514px;}.i{stroke-width:3px;}.j{stroke-width:0.85978px;}</style></defs><rect class="a" x="0.5" y="0.5" width="840" height="594"/><path class="b" d="M404.10108,298.64074c10.77883,1.36629,21.75622-.29234,32.265-2.721,10.29312-2.37884,20.33478-5.67536,30.52816-8.42546a115.0508,115.0508,0,0,1,13.61175-2.98473c.04665-.00668.53372-.072.14928-.02173q.43061-.05633.86225-.10467.70481-.08,1.41161-.14114c.99407-.08517,1.991-.1401,2.98874-.15362.857-.01163,1.71479.0064,2.57.06446.411.0279.82008.06819,1.22972.11118.77733.08157-.35424-.05973.11375.01383.27367.043.547.08694.81919.13867a35.15252,35.15252,0,0,1,10.11964,3.83706A33.51147,33.51147,0,0,1,512.812,298.87842c5.39521,7.99866,6.8991,17.65738,6.661,27.10633a107.68354,107.68354,0,0,1-3.71036,24.03855c-2.01231,7.9545-4.10912,15.45709-8.5562,22.24346-.79346,1.21084-1.64571,2.3814-2.52117,3.534q-.30532.402-.61382.80149c-.42161.54844.35526-.45871-.06942.08967l-.24917.32173c-.56441.72913-1.13,1.45741-1.68776,2.19168a68.20772,68.20772,0,0,0-5.79166,8.91226,106.60347,106.60347,0,0,0-6.51254,15.20214,76.15492,76.15492,0,0,0-3.73819,14.412c-1.11792,7.78393-.44852,15.35062.82557,23.06813,1.3172,7.97867,2.4596,15.07214,2.26789,23.37933a98.28937,98.28937,0,0,1-2.93634,21.67284c-3.26118,12.93615-8.04563,25.06709-15.751,36.03327a54.61469,54.61469,0,0,1-7.911,9.05152,32.85105,32.85105,0,0,1-4.47343,3.49322q-1.20012.79052-2.46036,1.48442-.62905.34536-1.27227.664a11.21108,11.21108,0,0,1-1.03113.48049,6.08766,6.08766,0,0,1-3.22219.54039,2.90876,2.90876,0,0,1-1.93646-1.45711,12.96147,12.96147,0,0,1-1.54242-4.75826c-.07929-.49158.06466.66015-.02356-.18664-.02826-.27127-.05456-.54248-.07516-.81445-.03583-.473-.05814-.9471-.07038-1.42133-.029-1.12521.00073-2.25167.0664-3.37512a65.3601,65.3601,0,0,1,.78052-6.7772c.82847-5.08344,1.993-10.107,3.21037-15.10919.55445-2.27823,1.12469-4.55259,1.67771-6.83117A30.06942,30.06942,0,0,0,453.39,490.366c.13614-9.7554-1.04914-19.94952-5.62476-28.70918a31.98329,31.98329,0,0,0-14.34407-14.08591,42.721,42.721,0,0,0-18.42788-3.8796,62.089,62.089,0,0,0-8.26579.56333,2.81417,2.81417,0,0,0-2.724,2.724c0,1.322,1.2551,2.91815,2.724,2.724a61.58838,61.58838,0,0,1,8.68142-.5608c1.53617.01536,3.07206.09669,4.60019.25558.34959.03635.69829.07932,1.04723.12128-.74255-.0893.35237.05372.53033.08189q1.14975.182,2.2879.42909a35.68554,35.68554,0,0,1,4.3893,1.24873c.36841.13143.73246.27314,1.09749.4135.13278.05106.26438.10645.39589.1605-.63538-.26111.03332.016.1356.06285.71708.32879,1.4273.6683,2.12085,1.04478q.9539.51782,1.86784,1.10507.46064.29646.90969.61045c.165.11541,1.17053.87095.69254.49592a28.25419,28.25419,0,0,1,3.65312,3.43526q.39395.44226.76964.90041.19019.23193.3755.46775c.28965.36835-.36886-.509.08944.12268.53735.7407,1.05566,1.492,1.53492,2.272q.71777,1.16817,1.33757,2.39269c.47539.93581.89318,1.86811,1.1421,2.49444a49.90931,49.90931,0,0,1,3.11431,12.94646,81.01314,81.01314,0,0,1,.45062,8.45642,13.03649,13.03649,0,0,1-.20008,3.10576c-.22831,1.022-.46944,2.04116-.71471,3.05924-1.16884,4.85164-2.41572,9.68421-3.48426,14.55961a108.96893,108.96893,0,0,0-2.4812,15.55644c-.28255,3.98577-.16742,8.19638,1.36861,11.94245a9.57019,9.57019,0,0,0,5.568,5.79694c2.90291.99862,5.96711.07328,8.61935-1.18575a40.9907,40.9907,0,0,0,10.28121-7.201c6.24853-5.84837,11.02427-13.23449,14.83581-20.84823a131.27231,131.27231,0,0,0,8.053-20.31206,102.32316,102.32316,0,0,0,4.08741-42.17045c-.47451-3.88935-1.14433-7.74649-1.78233-11.61107q-.21363-1.294-.41358-2.59015c-.06869-.45078-.134-.902-.19948-1.35326-.02379-.164-.04626-.32825-.06874-.49243.08565.62551-.05107-.40265-.06432-.50918-.2176-1.75-.38367-3.50659-.47164-5.268-.47285-9.46856,1.73279-18.03207,5.09512-27.03324a84.69892,84.69892,0,0,1,6.26669-13.48779q1.32671-2.24708,2.83971-4.376.63681-.89856,1.29982-1.77815.34856-.46437.702-.925.15783-.20616.31632-.41182c.33733-.4389-.29441.3793.13907-.17982a75.73228,75.73228,0,0,0,5.42507-7.62233,59.98563,59.98563,0,0,0,5.0999-11.50253,140.01472,140.01472,0,0,0,5.76634-24.07152c1.43328-9.692,1.77059-19.75257-.80848-29.2925a39.72852,39.72852,0,0,0-19.82-25.07562,41.0959,41.0959,0,0,0-11.10679-4.2191,36.91889,36.91889,0,0,0-11.73345-.08521c-9.89164,1.29879-19.46244,4.43076-29.01287,7.2-10.36426,3.00523-20.8918,5.97144-31.66764,7.01747a70.07536,70.07536,0,0,1-15.58379-.10265c-1.462-.18531-2.724,1.38464-2.724,2.724a2.79233,2.79233,0,0,0,2.724,2.724Z"/><path class="b" d="M425.46932,292.89925c-21.12937,2.69142-42.06617-3.11912-62.79075-6.32509-8.24355-1.27523-16.996-2.52754-25.26032-.72015a44.87142,44.87142,0,0,0-10.12387,3.76748,39.19186,39.19186,0,0,0-12.78189,9.95212c-11.91211,14.40052-11.3284,34.60555-7.63693,51.91027A99.42414,99.42414,0,0,0,314.79638,375.35c3.75379,7.49425,9.096,13.98381,13.27252,21.22272a79.30645,79.30645,0,0,1,9.68576,28.0403c.19639,1.35791.40043,3.57647.47877,5.31094q.11906,2.63595.00758,5.27525c-.07015,1.70751-.20878,3.41164-.39547,5.11022q-.06875.62556-.14567,1.25019c-.0222.181-.17194,1.33419-.096.769-.11141.82895-.23259,1.65662-.35668,2.48376-1.108,7.38508-2.3245,14.73341-2.3929,22.22225a110.34177,110.34177,0,0,0,2.94661,25.59642,121.60186,121.60186,0,0,0,11.71432,30.75634c3.80492,6.96,8.51722,13.68557,14.5594,18.88915a38.69624,38.69624,0,0,0,9.55136,6.24469c2.62651,1.15264,5.56684,1.811,8.33379.71111a9.60979,9.60979,0,0,0,5.17126-5.635c1.68549-4.1109,1.69494-8.70346,1.113-13.04118a97.803,97.803,0,0,0-3.90347-15.73142,90.78181,90.78181,0,0,1-3.5744-14.19151,64.21231,64.21231,0,0,1-.40913-13.45885,47.596,47.596,0,0,1,7.52874-22.93466,34.1937,34.1937,0,0,1,18.15255-13.60146,41.07617,41.07617,0,0,1,12.79079-1.74911c3.50668.03334,3.50961-5.4147,0-5.44806-8.8298-.08393-17.77242,2.0653-25.0697,7.18024a43.1839,43.1839,0,0,0-15.01818,19.41207,59.38407,59.38407,0,0,0-3.8904,25.70844,67.208,67.208,0,0,0,2.30537,14.08474c1.413,5.07422,3.15974,10.051,4.45259,15.15953,1.12124,4.43051,2.15212,9.436,1.24475,13.88552a19.78083,19.78083,0,0,1-.53536,2.08812,7.10755,7.10755,0,0,1-.99275,2.11621c-1.23455,1.65144-3.16177,1.4137-5.03573.69715-.95306-.36442.17712.08977-.279-.11983-.16572-.07615-.33016-.15493-.4943-.23442q-.58131-.28153-1.15126-.58563-1.3314-.70924-2.5982-1.53157a31.32713,31.32713,0,0,1-4.06023-3.06846,54.5323,54.5323,0,0,1-7.51627-8.1802,81.54114,81.54114,0,0,1-6.18154-9.80238q-1.37421-2.54124-2.60323-5.1575-.53808-1.14147-1.05086-2.29462-.27969-.62856-.55212-1.26034-.10784-.25-.21457-.50055c-.244-.57264.07238.17782-.14383-.34342a134.77864,134.77864,0,0,1-5.45445-15.85943,101.38312,101.38312,0,0,1-2.80589-39.82811c.11059-.85892-.04212.30026.02729-.20892q.045-.33021.09151-.66021.08274-.58812.16928-1.17571.19779-1.34685.40869-2.69173c.24591-1.5846.498-3.16827.73058-4.7549a99.33215,99.33215,0,0,0,1.07772-10.31605,72.62862,72.62862,0,0,0-3.79615-25.1069,84.52511,84.52511,0,0,0-6.20494-14.64015c-1.982-3.63405-4.287-7.06786-6.61769-10.48394a119.33588,119.33588,0,0,1-6.53319-10.37788,73.17047,73.17047,0,0,1-5.68031-13.91745q-1.33881-4.47683-2.37594-9.03995a106.66494,106.66494,0,0,1-1.935-10.99716c-1.00078-8.675-.90623-17.51387,1.752-25.82567a34.42833,34.42833,0,0,1,18.05126-20.6341,37.68955,37.68955,0,0,1,9.27158-3.22223q.644-.12209,1.293-.21526a6.99876,6.99876,0,0,0,.74919-.08254c.9339-.09443,1.87111-.153,2.80917-.18458,1.976-.06659,3.95487-.0128,5.92757.11081,9.36209.58666,18.61325,2.56137,27.89,4.23767,10.5779,1.91142,21.24313,3.70381,32.00278,4.11522a92.20387,92.20387,0,0,0,15.17687-.58779,2.81212,2.81212,0,0,0,2.724-2.724c0-1.3276-1.25443-2.91123-2.724-2.724Z"/><path class="c" d="M389.77085,379.46937c-.21581-1.872,22.441,15.31915,36.86653,9.25532,6.85331-2.88082,16.33824-11.04745,17.05851-10.80319.31409.10651.12371.61964-.31915,4.78723-1.02975,9.69047-2.89693,15.49023-7.61171,20.69681-6.99149,7.72091-14.53806,7.37144-18.50788,7.41527-3.52242.03893-7.67835-.55254-13.15607-3.93655C392.49526,399.71454,390.229,383.44328,389.77085,379.46937Z"/><path class="d" d="M493.07405,257.3142c1.18051,7.31951,11.66954,13.9964,19.59885,12.42854,7.77177-1.53674,12.78689-14.05594,20.25624-11.05422,17.04924,6.85162,76.93792,42.06326,84.5435,47.573,4.68285,3.39243,12.26521,7.95211,13.6425,5.40971,2.06605-3.81381,3.65393-5.42553,3.55119-7.94434-.388-9.51211-92.65495-50.35635-97.43505-56.98887-.39481-.54782-1.224-5.26635-5.41766-8.04668-2.17118-1.43942-10.52487-7.04685-21.5109-3.42581C507.06011,236.33437,492.0456,250.93812,493.07405,257.3142Z"/><path class="d" d="M502.73413,258.68851a4.32262,4.32262,0,0,1,2.68891.83655,4.22581,4.22581,0,0,1,1.19484,2.33036c.73988,4.06232-18.90412,19.24663-19.4593,18.18466C486.70044,279.16373,498.4844,258.69666,502.73413,258.68851Z"/><path class="b" d="M500.72213,256.22036a9.27569,9.27569,0,0,1,1.50064-.25531,6.26727,6.26727,0,0,1,2.07644.15278,8.52629,8.52629,0,0,1,2.648,1.32278,6.71729,6.71729,0,0,1,2.17136,2.20508,2.9512,2.9512,0,0,1-.46585,3.43351c-.31148.374.26481.60314.54892.61468a1.6484,1.6484,0,0,0,1.31723-.55269c3.25832-3.91214-2.50463-7.91458-6.0423-8.31339a11.75018,11.75018,0,0,0-4.03283.35363c-.31276.0743-.96039.36679-.86007.78722.10231.42873.8614.31753,1.13845.25171Z"/><path class="b" d="M488.40637,269.549c-.00371-.07484-.00393-.14982-.00182-.22471.0018-.06375.00543-.12744.01055-.191.00276-.03431.00658-.06849.00968-.10276.01267-.14039-.01939.10614-.0005-.00309a4.61265,4.61265,0,0,1,.1294-.57q.02222-.07245.04729-.144c.00718-.02047.06817-.18143.04416-.12215-.02367.05844.03543-.07768.0463-.10046q.0428-.08964.0905-.17684a3.50427,3.50427,0,0,1,.20465-.32873c.01776-.0253.03566-.05056.05421-.07529-.00852.01135-.04619.05758-.00062.002q.07218-.088.14944-.17155a2.63054,2.63054,0,0,1,.62417-.51338,3.60769,3.60769,0,0,1,.371-.19507c.06639-.03034.005-.0025-.00753.00251.028-.01122.05617-.02193.08444-.03242q.10992-.04079.22226-.07438.159-.04758.32179-.08086c.05114-.01049.10249-.01937.15391-.0283.0249-.00433.05-.00785.07494-.01156-.0793.01177-.07389.00852.00228.002a4.32082,4.32082,0,0,1,.58111-.01506c.06488.00317.12937.00919.19405.01481.1728.015-.1634-.02589-.02134-.00328a.64111.64111,0,0,0,.76882-.43652.63231.63231,0,0,0-.43652-.76883,4.45943,4.45943,0,0,0-2.68309.40654,4.18263,4.18263,0,0,0-2.18422,2.88171,4.27888,4.27888,0,0,0-.09936,1.06065.625.625,0,0,0,1.25,0Z"/><path class="b" d="M505.375,272.42883a5.91782,5.91782,0,0,1-.73609,3.16078,5.73926,5.73926,0,0,1-4.44116,2.92448,6.95324,6.95324,0,0,1-1.03568.02685c-.1156-.00565-.23066-.01566-.34586-.0264-.22718-.02118.09317.01784-.09193-.01162a.64447.64447,0,0,0-.76882.43653.62986.62986,0,0,0,.43652.76882,7.37788,7.37788,0,0,0,4.40523-.67527,6.99112,6.99112,0,0,0,3.66818-4.84378,7.08726,7.08726,0,0,0,.15961-1.76039c-.03975-.80062-1.29-.80539-1.25,0Z"/><path class="b" d="M514.563,283.8191c2.29038-1.56825,5.587-2.13191,7.70472.0561a4.61655,4.61655,0,0,1,1.45219,3.41609c-.1292,1.04991-.94284,1.04363-1.79957.94234a15.74422,15.74422,0,0,1-4.95616-1.65139,1.13432,1.13432,0,0,0-.75813.08364c-.04836.0172-.52764.22583-.36087.30717a15.54492,15.54492,0,0,0,5.40255,1.72633c1.062.08754,2.6209-.00814,3.34758-.92206.92378-1.16181-.1547-3.06926-.93769-3.99406a5.40773,5.40773,0,0,0-4.12965-1.82117,10.51266,10.51266,0,0,0-6.03053,1.96981c-.22593.15469.20186.16708.27091.16151a1.68052,1.68052,0,0,0,.79465-.27431Z"/><path class="b" d="M542.92264,282.81082c5.21048.131,11.59809,2.51173,13.12219,8.06966.63528,2.31665.51353,5.79477-1.25173,7.63694-1.42565,1.48778-3.45675.12691-4.68448-.93237a29.00421,29.00421,0,0,1-6.22207-8.49859c-.37838-.71024-1.45781-.07949-1.07934.6309a29.92688,29.92688,0,0,0,6.41753,8.75157c1.47448,1.2706,3.69031,2.68252,5.64444,1.57163,2.44672-1.39091,2.92777-5.20987,2.69254-7.71412a10.51612,10.51612,0,0,0-3.99869-7.1954,17.53419,17.53419,0,0,0-10.64039-3.57022.62538.62538,0,0,0,0,1.25Z"/><path class="b" d="M480.074,275.45225c-2.60572.79789-6.03875.54751-7.61-2.00461a4.65388,4.65388,0,0,1-.57973-3.86637,1.36817,1.36817,0,0,1,.31543-.44911c.0469-.04691.0491-.03379.06513-.03888a.36994.36994,0,0,1,.18442-.03156,3.54231,3.54231,0,0,1,1.3317.31215,15.02213,15.02213,0,0,1,4.43325,3.14251c.311.29516,1.42913-.156,1.09761-.47064a15.62645,15.62645,0,0,0-4.59226-3.25854c-1.07677-.4445-2.51323-.71454-3.479.13394-1.11579.9803-.8,2.926-.31083,4.13645a5.398,5.398,0,0,0,3.24646,3.02929,9.61705,9.61705,0,0,0,6.06384-.015c.17843-.05464.57747-.213.509-.46843-.06591-.246-.50656-.20275-.675-.15116Z"/><path class="b" d="M466.04893,257.78936c-1.66554-2.347-4.69909-4.326-7.65439-3.23432-1.25654.46418-2.863,1.64876-3.05109,3.08791-.1371,1.04914.84293,1.62445,1.70194,1.91551a13.686,13.686,0,0,0,5.6728.32886c.3064-.03092.45817-.4214.06211-.38143a15.31239,15.31239,0,0,1-4.59209-.09309c-.77015-.15826-1.944-.459-2.22366-1.31584-.41842-1.28178,1.29387-2.608,2.26294-3.0698a4.55816,4.55816,0,0,1,3.5642-.03571,8.20139,8.20139,0,0,1,3.72628,3.04075c.13537.19075.68982-.019.531-.24284Z"/><path class="b" d="M299.03352,291.46419c-1.74862-2.4641-4.98584-4.66722-8.11016-3.44085-1.40237.55046-3.04044,1.8494-3.20389,3.46088-.12418,1.22423.91334,1.95932,1.938,2.33049a13.42556,13.42556,0,0,0,5.80222.37576c.79275-.08.801-1.33084,0-1.25a15.54279,15.54279,0,0,1-4.43934-.05713,4.92761,4.92761,0,0,1-1.43135-.4535,1.29916,1.29916,0,0,1-.59968-.55291,1.57707,1.57707,0,0,1,.47918-1.3066,4.74417,4.74417,0,0,1,1.66264-1.28428,4.31832,4.31832,0,0,1,3.25058-.0473,7.59661,7.59661,0,0,1,3.57251,2.85634c.46177.65071,1.54624.027,1.07934-.6309Z"/><path class="b" d="M285.57472,317.29986c-4.01437-2.3962-10.08151-3.27065-13.33584.86022-1.1588,1.47092-2.28222,3.7944-1.62269,5.70316.54713,1.58347,2.27486,1.9168,3.76118,1.79165a20.5541,20.5541,0,0,0,8.11964-2.99614.62546.62546,0,0,0-.6309-1.07933,23.1618,23.1618,0,0,1-6.31529,2.635c-.97906.21723-2.7995.57989-3.55149-.36362-.9764-1.22509.219-3.50269.93843-4.54767a6.56571,6.56571,0,0,1,4.69189-2.72846,11.66673,11.66673,0,0,1,7.31417,1.80454.62546.62546,0,0,0,.6309-1.07933Z"/><ellipse class="e" cx="373.17965" cy="350.71705" rx="15.36722" ry="17.53972"/><ellipse class="f" cx="368.00056" cy="344.80578" rx="8.37939" ry="5.06204" transform="translate(-128.52701 432.98631) rotate(-53.20666)"/><ellipse class="g" cx="371.67316" cy="359.18066" rx="4.05648" ry="4.40143"/><ellipse class="h" cx="381.50062" cy="348.85951" rx="2.98694" ry="4.05373"/><path class="b" d="M361.52953,336.0111a22.38134,22.38134,0,0,1-2.7818-.68928c-.16587-.05891-.32947-.12308-.49337-.18714-.29617-.11578.42911.19484.07065.029-.091-.04213-.18283-.08256-.27338-.12582a9.73,9.73,0,0,1-1.05321-.58317c-.16875-.108-.33124-.22391-.494-.34058-.24522-.17581.34712.28592-.01306-.01643q-.10905-.09155-.21466-.18708c-.16655-.15079-.32655-.309-.47823-.4748q-.09906-.10825-.19366-.22051c-.308-.36563.15206.21324-.03085-.03595a1.90742,1.90742,0,0,0-1.04886-.80654,1.79364,1.79364,0,0,0-1.35237.17692,1.77444,1.77444,0,0,0-.62962,2.40123,10.73729,10.73729,0,0,0,5.04556,3.67288,21.00134,21.00134,0,0,0,3.0077.772,1.75548,1.75548,0,1,0,.93312-3.3847Z"/><path class="b" d="M358.78542,341.83427c-.6128-.14248-1.1974-.37092-1.80351-.52662-.23915-.06143-.07434.08583.15719.07159-.07736.00476-.238-.10882-.30757-.14261-.47362-.23-.93072-.49449-1.38111-.7667-.63548-.38409-1.25628-.79267-1.86646-1.21567q-.48165-.33391-.95417-.68077-.20982-.15393-.41786-.31032-.14061-.10571-.28038-.21251.18127.14148-.06694-.0522a33.25325,33.25325,0,0,1-3.871-3.49584c-.26892-.28912-.53073-.585-.78219-.88943q-.10424-.12607-.206-.25416.13935.1839.02943.03811-.16386-.218-.31929-.44209a10.17053,10.17053,0,0,1-.5434-.87305c-.08821-.16054-.163-.32713-.24768-.48923-.14316-.274.09969.28565-.06144-.179a1.798,1.798,0,0,0-2.15891-1.22579,1.7714,1.7714,0,0,0-1.22579,2.15891c1.16836,3.36943,4.17616,5.996,6.90428,8.13361,2.56134,2.007,5.25006,3.99,8.46969,4.73851a1.75548,1.75548,0,1,0,.93312-3.3847Z"/><polyline class="i" points="465.783 337.703 448.212 350.717 465.783 359.181"/><path class="j" d="M398.63463,390.50646c1.246,2.59584,9.47388,13.31436,19.86154,12.96421,9.24112-.31149,16.628-9.30039,18.27451-12.68235"/></svg>